<svg xmlns="http://www.w3.org/2000/svg" viewBox="0 0 640 360" role="img" aria-labelledby="title desc">
  <title id="title">Matching minigame card</title>
  <desc id="desc">A grid of matching cards with road and bridge symbols</desc>
  <defs>
    <linearGradient id="bg" x1="0" x2="1" y1="0" y2="1">
      <stop offset="0%" stop-color="#1f2f3a"/>
      <stop offset="100%" stop-color="#10171d"/>
    </linearGradient>
  </defs>
  <rect width="640" height="360" fill="url(#bg)"/>
  <rect x="96" y="72" width="144" height="96" rx="18" fill="#ffc107"/>
  <rect x="258" y="72" width="144" height="96" rx="18" fill="#f8f9fa"/>
  <rect x="420" y="72" width="144" height="96" rx="18" fill="#ffc107"/>
  <rect x="96" y="192" width="144" height="96" rx="18" fill="#f8f9fa"/>
  <rect x="258" y="192" width="144" height="96" rx="18" fill="#ffc107"/>
  <rect x="420" y="192" width="144" height="96" rx="18" fill="#f8f9fa"/>
  <circle cx="168" cy="240" r="28" fill="#495057"/>
  <circle cx="168" cy="240" r="12" fill="#0f1318"/>
  <path d="M296 138h68l18 22v16h-104v-16z" fill="#0d6efd"/>
  <rect x="312" y="176" width="14" height="26" fill="#0d6efd"/>
  <rect x="352" y="176" width="14" height="26" fill="#0d6efd"/>
  <rect x="459" y="95" width="68" height="16" rx="8" fill="#212529"/>
  <rect x="491" y="111" width="4" height="38" fill="#212529"/>
  <circle cx="493" cy="164" r="14" fill="#dc3545"/>
  <polygon points="298,242 332,212 366,242 366,270 298,270" fill="#198754"/>
  <rect x="318" y="244" width="28" height="26" fill="#d1e7dd"/>
  <text x="320" y="48" text-anchor="middle" font-family="Segoe UI, Arial, sans-serif" font-size="28" font-weight="700" fill="#f8f9fa">Image Matching</text>
</svg>
