<svg xmlns="http://www.w3.org/2000/svg" viewBox="0 0 640 360" role="img" aria-labelledby="title desc">
  <title id="title">Slots minigame card</title>
  <desc id="desc">Three slot reels with roadwork-themed symbols</desc>
  <defs>
    <linearGradient id="bg" x1="0" x2="1" y1="0" y2="1">
      <stop offset="0%" stop-color="#203040"/>
      <stop offset="100%" stop-color="#10181f"/>
    </linearGradient>
  </defs>
  <rect width="640" height="360" fill="url(#bg)"/>
  <circle cx="80" cy="70" r="42" fill="#ffc107" fill-opacity="0.15"/>
  <circle cx="565" cy="295" r="56" fill="#0d6efd" fill-opacity="0.12"/>
  <rect x="88" y="72" width="464" height="222" rx="28" fill="#f8f9fa" fill-opacity="0.08" stroke="#ffc107" stroke-opacity="0.35"/>
  <rect x="124" y="110" width="110" height="146" rx="16" fill="#f8f9fa"/>
  <rect x="265" y="110" width="110" height="146" rx="16" fill="#f8f9fa"/>
  <rect x="406" y="110" width="110" height="146" rx="16" fill="#f8f9fa"/>
  <circle cx="179" cy="183" r="31" fill="#495057"/>
  <circle cx="179" cy="183" r="14" fill="#0f1318"/>
  <rect x="302" y="152" width="36" height="68" rx="10" fill="#fd7e14"/>
  <rect x="292" y="142" width="56" height="10" rx="5" fill="#fd7e14"/>
  <rect x="295" y="170" width="50" height="9" rx="4" fill="#fff3cd"/>
  <polygon points="461,145 495,205 427,205" fill="#198754"/>
  <rect x="450" y="205" width="22" height="18" rx="4" fill="#198754"/>
  <rect x="475" y="205" width="22" height="18" rx="4" fill="#198754"/>
  <rect x="176" y="284" width="288" height="14" rx="7" fill="#ffc107" fill-opacity="0.7"/>
  <text x="320" y="52" text-anchor="middle" font-family="Segoe UI, Arial, sans-serif" font-size="28" font-weight="700" fill="#f8f9fa">Infrastructure Slots</text>
</svg>
