<svg xmlns="http://www.w3.org/2000/svg" viewBox="0 0 640 360" role="img" aria-labelledby="title desc">
  <title id="title">Trivia minigame card</title>
  <desc id="desc">A trivia card with a question panel and road sign</desc>
  <defs>
    <linearGradient id="bg" x1="0" x2="1" y1="0" y2="1">
      <stop offset="0%" stop-color="#233241"/>
      <stop offset="100%" stop-color="#121920"/>
    </linearGradient>
  </defs>
  <rect width="640" height="360" fill="url(#bg)"/>
  <rect x="92" y="80" width="304" height="200" rx="22" fill="#f8f9fa"/>
  <rect x="122" y="118" width="228" height="18" rx="9" fill="#dee2e6"/>
  <rect x="122" y="154" width="196" height="18" rx="9" fill="#ffc107"/>
  <rect x="122" y="190" width="170" height="18" rx="9" fill="#dee2e6"/>
  <rect x="122" y="226" width="210" height="18" rx="9" fill="#dee2e6"/>
  <circle cx="474" cy="160" r="68" fill="#0d6efd" fill-opacity="0.18"/>
  <path d="M468 94h12v20c0 11-7 19-16 26-8 6-12 11-12 20v6h-12v-8c0-13 7-21 17-29 7-5 11-10 11-17z" fill="#ffc107"/>
  <circle cx="446" cy="191" r="9" fill="#ffc107"/>
  <polygon points="524,208 540,236 508,236" fill="#fd7e14"/>
  <rect x="518" y="236" width="12" height="24" fill="#fd7e14"/>
  <text x="320" y="50" text-anchor="middle" font-family="Segoe UI, Arial, sans-serif" font-size="28" font-weight="700" fill="#f8f9fa">Infrastructure Trivia</text>
</svg>
