<svg xmlns="http://www.w3.org/2000/svg" xmlns:xlink="http://www.w3.org/1999/xlink" xmlns:lucid="lucid" width="1483.17" height="762"><g transform="translate(2321.5 961)" lucid:page-tab-id="0_0"><path d="M-2500-1000h2000V0h-2000z" fill="#fff"/><path d="M-1240-944a16 16 0 0 1 16-16h368.67a16 16 0 0 1 16 16v136a16 16 0 0 1-16 16H-1224a16 16 0 0 1-16-16z" fill="#fff"/><path d="M-1240-920h400.67v33H-1240z" fill="#fff"/><path d="M-1240-888h400.67v33H-1240z" fill="#fff"/><path d="M-1240-856h400.67v33H-1240z" fill="#fff"/><path d="M-1240-824h400.67v16a16 16 0 0 1-16 16H-1224a16 16 0 0 1-16-16z" fill="#fff"/><path d="M-1239-920h398.67H-1239zM-1240-944a16 16 0 0 1 16-16h368.67a16 16 0 0 1 16 16v136a16 16 0 0 1-16 16H-1224a16 16 0 0 1-16-16zM-1180-919v126zM-997.6-919v126z" stroke="#000" stroke-width="2" fill="none"/><use xlink:href="#a" transform="matrix(1,0,0,1,-1230,-960) translate(135.8232421875 26.5478515625)"/><use xlink:href="#b" transform="matrix(1,0,0,1,-1235,-917.5) translate(13.205078125 20.0478515625)"/><use xlink:href="#c" transform="matrix(1,0,0,1,-1175,-917.5) translate(78.572265625 20.0478515625)"/><use xlink:href="#d" transform="matrix(1,0,0,1,-992.6129557291667,-917.5) translate(1.3310546875 20.0478515625)"/><use xlink:href="#e" transform="matrix(1,0,0,1,-1175,-885.5) translate(61.53466796875 20.0478515625)"/><use xlink:href="#f" transform="matrix(1,0,0,1,-992.6129557291667,-885.5) translate(1.7529296875 20.0478515625)"/><use xlink:href="#g" transform="matrix(1,0,0,1,-1175,-853.5) translate(12.935546875 20.0478515625)"/><use xlink:href="#f" transform="matrix(1,0,0,1,-992.6129557291667,-853.5) translate(1.7529296875 20.0478515625)"/><use xlink:href="#h" transform="matrix(1,0,0,1,-1175,-821.5) translate(4.181640625 20.0478515625)"/><use xlink:href="#i" transform="matrix(1,0,0,1,-992.6129557291667,-821.5) translate(-2.1845703125 20.0478515625)"/><path d="M-2280-944a16 16 0 0 1 16-16h428a16 16 0 0 1 16 16v424a16 16 0 0 1-16 16h-428a16 16 0 0 1-16-16z" fill="#fff"/><path d="M-2280-920h460v33h-460z" fill="#fff"/><path d="M-2280-888h460v33h-460z" fill="#fff"/><path d="M-2280-856h460v33h-460z" fill="#fff"/><path d="M-2280-824h460v33h-460z" fill="#fff"/><path d="M-2280-792h460v33h-460z" fill="#fff"/><path d="M-2280-760h460v33h-460z" fill="#fff"/><path d="M-2280-728h460v33h-460z" fill="#fff"/><path d="M-2280-696h460v33h-460z" fill="#fff"/><path d="M-2280-664h460v33h-460z" fill="#fff"/><path d="M-2280-632h460v33h-460z" fill="#fff"/><path d="M-2280-600h460v33h-460z" fill="#fff"/><path d="M-2280-568h460v33h-460z" fill="#fff"/><path d="M-2280-536h460v16a16 16 0 0 1-16 16h-428a16 16 0 0 1-16-16z" fill="#fff"/><path d="M-2279-920h458-458zM-2280-944a16 16 0 0 1 16-16h428a16 16 0 0 1 16 16v424a16 16 0 0 1-16 16h-428a16 16 0 0 1-16-16zM-2220-919v414zM-2007.95-919v414z" stroke="#000" stroke-width="2" fill="none"/><use xlink:href="#j" transform="matrix(1,0,0,1,-2270,-960) translate(163.7236328125 26.5478515625)"/><use xlink:href="#b" transform="matrix(1,0,0,1,-2275,-917.5) translate(13.205078125 20.0478515625)"/><use xlink:href="#c" transform="matrix(1,0,0,1,-2215,-917.5) translate(93.572265625 20.0478515625)"/><use xlink:href="#d" transform="matrix(1,0,0,1,-2002.9462890625,-917.5) translate(15.8310546875 20.0478515625)"/><use xlink:href="#k" transform="matrix(1,0,0,1,-2215,-885.5) translate(56.31103515625 20.0478515625)"/><use xlink:href="#f" transform="matrix(1,0,0,1,-2002.9462890625,-885.5) translate(16.2529296875 20.0478515625)"/><use xlink:href="#l" transform="matrix(1,0,0,1,-2215,-853.5) translate(7.7119140625 20.0478515625)"/><use xlink:href="#f" transform="matrix(1,0,0,1,-2002.9462890625,-853.5) translate(16.2529296875 20.0478515625)"/><use xlink:href="#m" transform="matrix(1,0,0,1,-2215,-821.5) translate(78.79345703125 20.0478515625)"/><use xlink:href="#f" transform="matrix(1,0,0,1,-2002.9462890625,-821.5) translate(16.2529296875 20.0478515625)"/><use xlink:href="#n" transform="matrix(1,0,0,1,-2215,-789.5) translate(30.1943359375 20.0478515625)"/><use xlink:href="#f" transform="matrix(1,0,0,1,-2002.9462890625,-789.5) translate(16.2529296875 20.0478515625)"/><use xlink:href="#o" transform="matrix(1,0,0,1,-2215,-757.5) translate(38.0341796875 20.0478515625)"/><use xlink:href="#i" transform="matrix(1,0,0,1,-2002.9462890625,-757.5) translate(12.3154296875 20.0478515625)"/><use xlink:href="#p" transform="matrix(1,0,0,1,-2215,-725.5) translate(38.91748046875 20.0478515625)"/><use xlink:href="#i" transform="matrix(1,0,0,1,-2002.9462890625,-725.5) translate(12.3154296875 20.0478515625)"/><use xlink:href="#h" transform="matrix(1,0,0,1,-2215,-693.5) translate(19.181640625 20.0478515625)"/><use xlink:href="#i" transform="matrix(1,0,0,1,-2002.9462890625,-693.5) translate(12.3154296875 20.0478515625)"/><use xlink:href="#q" transform="matrix(1,0,0,1,-2215,-661.5) translate(40.3369140625 20.0478515625)"/><use xlink:href="#i" transform="matrix(1,0,0,1,-2002.9462890625,-661.5) translate(12.3154296875 20.0478515625)"/><use xlink:href="#r" transform="matrix(1,0,0,1,-2215,-629.5) translate(22.3544921875 20.0478515625)"/><use xlink:href="#s" transform="matrix(1,0,0,1,-2002.9462890625,-629.5) translate(74.884765625 20.0478515625)"/><use xlink:href="#t" transform="matrix(1,0,0,1,-2215,-597.5) translate(51.2353515625 20.0478515625)"/><use xlink:href="#u" transform="matrix(1,0,0,1,-2002.9462890625,-597.5) translate(9.880859375 20.0478515625)"/><use xlink:href="#v" transform="matrix(1,0,0,1,-2215,-565.5) translate(33.244140625 20.0478515625)"/><use xlink:href="#s" transform="matrix(1,0,0,1,-2002.9462890625,-565.5) translate(74.884765625 20.0478515625)"/><use xlink:href="#w" transform="matrix(1,0,0,1,-2215,-533.5) translate(19.44091796875 20.0478515625)"/><use xlink:href="#x" transform="matrix(1,0,0,1,-2002.9462890625,-533.5) translate(73.99267578125 20.0478515625)"/><path d="M-1740-744a16 16 0 0 1 16-16h388.13a16 16 0 0 1 16 16v72a16 16 0 0 1-16 16H-1724a16 16 0 0 1-16-16z" fill="#fff"/><path d="M-1740-720h420.13v33H-1740z" fill="#fff"/><path d="M-1740-688h420.13v16a16 16 0 0 1-16 16H-1724a16 16 0 0 1-16-16z" fill="#fff"/><path d="M-1739-720h418.13H-1739zM-1740-744a16 16 0 0 1 16-16h388.13a16 16 0 0 1 16 16v72a16 16 0 0 1-16 16H-1724a16 16 0 0 1-16-16zM-1680-719v62zM-1487.88-719v62z" stroke="#000" stroke-width="2" fill="none"/><use xlink:href="#y" transform="matrix(1,0,0,1,-1730,-760) translate(125.599609375 26.5478515625)"/><use xlink:href="#b" transform="matrix(1,0,0,1,-1735,-717.5) translate(13.205078125 20.0478515625)"/><use xlink:href="#z" transform="matrix(1,0,0,1,-1675,-717.5) translate(63.3486328125 20.0478515625)"/><use xlink:href="#d" transform="matrix(1,0,0,1,-1482.8796223958334,-717.5) translate(6.3310546875 20.0478515625)"/><use xlink:href="#b" transform="matrix(1,0,0,1,-1735,-685.5) translate(13.205078125 20.0478515625)"/><use xlink:href="#A" transform="matrix(1,0,0,1,-1675,-685.5) translate(65.0888671875 20.0478515625)"/><use xlink:href="#d" transform="matrix(1,0,0,1,-1482.8796223958334,-685.5) translate(6.3310546875 20.0478515625)"/><path d="M-1761-703.98h-7a12 12 0 0 1-12-12V-892a12 12 0 0 0-12-12h-7.6M-1741-703.98h-20m0-10v20M-1818.78-904h20m-20 10l20-10m-20-10l20 10M-1299.46-671.83h7.52a12 12 0 0 0 12-12v-208.3a12 12 0 0 1 12-12h6.94M-1318.65-671.83h20m-20 10l20-10m-20-10l20 10M-1241-904.14h-20m0-10v20" stroke="#3a414a" fill="none"/><path d="M-1739.87-608a16 16 0 0 1 16-16h388a16 16 0 0 1 16 16v264a16 16 0 0 1-16 16h-388a16 16 0 0 1-16-16z" fill="#fff"/><path d="M-1739.87-584h420v33h-420z" fill="#fff"/><path d="M-1739.87-552h420v33h-420z" fill="#fff"/><path d="M-1739.87-520h420v33h-420z" fill="#fff"/><path d="M-1739.87-488h420v33h-420z" fill="#fff"/><path d="M-1739.87-456h420v33h-420z" fill="#fff"/><path d="M-1739.87-424h420v33h-420z" fill="#fff"/><path d="M-1739.87-392h420v33h-420z" fill="#fff"/><path d="M-1739.87-360h420v16a16 16 0 0 1-16 16h-388a16 16 0 0 1-16-16z" fill="#fff"/><path d="M-1738.87-584h418-418zM-1739.87-608a16 16 0 0 1 16-16h388a16 16 0 0 1 16 16v264a16 16 0 0 1-16 16h-388a16 16 0 0 1-16-16zM-1679.87-583v254zM-1487.8-583v254z" stroke="#000" stroke-width="2" fill="none"/><use xlink:href="#B" transform="matrix(1,0,0,1,-1729.8666666666666,-624) translate(167.0498046875 26.5478515625)"/><use xlink:href="#b" transform="matrix(1,0,0,1,-1734.8666666666666,-581.5) translate(13.205078125 20.0478515625)"/><use xlink:href="#c" transform="matrix(1,0,0,1,-1674.8666666666666,-581.5) translate(83.572265625 20.0478515625)"/><use xlink:href="#x" transform="matrix(1,0,0,1,-1482.8129557291666,-581.5) translate(63.99267578125 20.0478515625)"/><use xlink:href="#C" transform="matrix(1,0,0,1,-1674.8666666666666,-549.5) translate(42.80859375 20.0478515625)"/><use xlink:href="#i" transform="matrix(1,0,0,1,-1482.8129557291666,-549.5) translate(2.3154296875 20.0478515625)"/><use xlink:href="#D" transform="matrix(1,0,0,1,-1674.8666666666666,-517.5) translate(64.6669921875 20.0478515625)"/><use xlink:href="#E" transform="matrix(1,0,0,1,-1482.8129557291666,-517.5) translate(11.64501953125 20.0478515625)"/><use xlink:href="#F" transform="matrix(1,0,0,1,-1674.8666666666666,-485.5) translate(48.7060546875 20.0478515625)"/><use xlink:href="#G" transform="matrix(1,0,0,1,-1482.8129557291666,-485.5) translate(28.8935546875 20.0478515625)"/><use xlink:href="#z" transform="matrix(1,0,0,1,-1674.8666666666666,-453.5) translate(63.3486328125 20.0478515625)"/><use xlink:href="#d" transform="matrix(1,0,0,1,-1482.8129557291666,-453.5) translate(5.8310546875 20.0478515625)"/><use xlink:href="#H" transform="matrix(1,0,0,1,-1674.8666666666666,-421.5) translate(57.20947265625 20.0478515625)"/><use xlink:href="#I" transform="matrix(1,0,0,1,-1482.8129557291666,-421.5) translate(18.8125 20.0478515625)"/><use xlink:href="#J" transform="matrix(1,0,0,1,-1674.8666666666666,-389.5) translate(48.97412109375 20.0478515625)"/><use xlink:href="#I" transform="matrix(1,0,0,1,-1482.8129557291666,-389.5) translate(18.8125 20.0478515625)"/><use xlink:href="#K" transform="matrix(1,0,0,1,-1674.8666666666666,-357.5) translate(52.97314453125 20.0478515625)"/><use xlink:href="#d" transform="matrix(1,0,0,1,-1482.8129557291666,-357.5) translate(5.8310546875 20.0478515625)"/><path d="M-1760.28-440h-4.94m-4.94 0h-9.9m-4.94 0h-9.88m-4.95 0h-9.88m-4.96 0h-9.88m-4.95 0h-9.87m-4.95 0h-9.88m-4.95 0h-9.88m-4.95 0h-9.88m-4.95 0h-9.9m-4.94 0h-9.88m-4.95 0h-9.88m-4.95 0h-9.9m-4.93 0h-9.9m-4.93 0h-9.9m-4.93 0h-9.88m-4.94 0h-9.9m-4.93 0h-9.9m-4.93 0h-9.9m-4.93 0h-9.9m-4.94 0h-9.9m-4.93 0h-9.9m-4.93 0h-9.9m-4.93 0h-9.9m-4.93 0h-9.9m-4.93 0h-9.88m-4.94 0h-9.9m-4.93 0h-9.9m-4.93 0h-9.9m-4.93 0h-9.9m-4.94 0h-9.9m-4.93 0h-9.9m-4.94 0h-9.9m-4.93 0h-9.9m-4.94 0h-9.88m-4.95 0h-9.88m-4.95 0h-9.88m-4.96 0h-4.94l-1.88-.15-1.83-.44-1.75-.7-.53-.34m-4.38-4.38l-.33-.53-.7-1.74-.45-1.82-.15-1.88v-5.06m0-5.06v-10.1m0-5.07v-10.1m0-5.06v-10.12m0-5.05v-10.12m0-5.05v-10.12m0-5.06v-10.1m0-5.07v-10.1m0-5.07v-10.12m0-5.05v-10.1m0-5.07v-10.1m0-5.07v-10.1m0-5.07v-10.13m0-5.05v-10.12m0-5.06v-10.1m0-5.07v-10.1m0-5.07v-10.12m0-5.05V-715m0-5.05v-10.1m0-5.07v-10.1m0-5.07v-10.1m0-5.06v-10.12m0-5.06v-10.1m0-5.07v-10.12m0-5.06v-10.12m0-5.05v-10.12m0-5.05v-10.12m0-5.06v-10.1m0-5.07v-10.12m0-5.04V-892l.15-1.88.44-1.83.7-1.75.34-.53m4.38-4.38l.53-.33 1.74-.7 1.82-.45 1.88-.15h8M-1741.1-440h-20m20-10l-20 10m20 10l-20-10M-2281-904h-20m0-10v20" stroke="#e81313" fill="none"/><path d="M-2280-384a16 16 0 0 1 16-16h428a16 16 0 0 1 16 16v168a16 16 0 0 1-16 16h-428a16 16 0 0 1-16-16z" fill="#fff"/><path d="M-2280-360h460v33h-460z" fill="#fff"/><path d="M-2280-328h460v33h-460z" fill="#fff"/><path d="M-2280-296h460v33h-460z" fill="#fff"/><path d="M-2280-264h460v33h-460z" fill="#fff"/><path d="M-2280-232h460v16a16 16 0 0 1-16 16h-428a16 16 0 0 1-16-16z" fill="#fff"/><path d="M-2279-360h458-458zM-2280-384a16 16 0 0 1 16-16h428a16 16 0 0 1 16 16v168a16 16 0 0 1-16 16h-428a16 16 0 0 1-16-16zM-2220-359v158zM-2007.95-359v158z" stroke="#000" stroke-width="2" fill="none"/><use xlink:href="#L" transform="matrix(1,0,0,1,-2270,-400) translate(174.076171875 26.5478515625)"/><use xlink:href="#b" transform="matrix(1,0,0,1,-2275,-357.5) translate(13.205078125 20.0478515625)"/><use xlink:href="#c" transform="matrix(1,0,0,1,-2215,-357.5) translate(93.572265625 20.0478515625)"/><use xlink:href="#x" transform="matrix(1,0,0,1,-2002.9462890624998,-357.5) translate(73.99267578125 20.0478515625)"/><use xlink:href="#M" transform="matrix(1,0,0,1,-2275,-325.5) translate(13.64013671875 20.0478515625)"/><use xlink:href="#z" transform="matrix(1,0,0,1,-2215,-325.5) translate(73.3486328125 20.0478515625)"/><use xlink:href="#d" transform="matrix(1,0,0,1,-2002.9462890624998,-325.5) translate(15.8310546875 20.0478515625)"/><use xlink:href="#N" transform="matrix(1,0,0,1,-2215,-293.5) translate(43.12744140625 20.0478515625)"/><use xlink:href="#x" transform="matrix(1,0,0,1,-2002.9462890624998,-293.5) translate(73.99267578125 20.0478515625)"/><use xlink:href="#O" transform="matrix(1,0,0,1,-2215,-261.5) translate(41.4619140625 20.0478515625)"/><use xlink:href="#x" transform="matrix(1,0,0,1,-2002.9462890624998,-261.5) translate(73.99267578125 20.0478515625)"/><use xlink:href="#P" transform="matrix(1,0,0,1,-2215,-229.5) translate(47.27587890625 20.0478515625)"/><use xlink:href="#G" transform="matrix(1,0,0,1,-2002.9462890624998,-229.5) translate(38.8935546875 20.0478515625)"/><path d="M-2301-312.05h-2m-4 0h-2l-1.88-.15-.45-.1m-4.32-1.8l-.4-.24-1.43-1.23-1.23-1.43-.25-.4m-1.8-4.32l-.1-.45-.15-1.88v-2m0-4v-4m0-4.02v-4m0-4v-4m0-4.02v-4m0-4v-4m0-4v-4m0-4.02v-4m0-4v-4m0-4.02v-4m0-4v-4m0-4.02v-4m0-4v-4m0-4.02v-4m0-4v-4m0-4.02v-4m0-4v-4m0-4.02v-4m0-4v-4m0-4.02v-4m0-4v-4m0-4v-4.02m0-4v-4m0-4v-4.02m0-4v-4m0-4v-4.02m0-4v-4m0-4v-4.02m0-4v-4m0-4v-4.02m0-4v-4m0-4v-4.02m0-4v-4m0-4v-4.02m0-4v-4m0-4v-4.02m0-4v-4m0-4v-4.02m0-4v-4m0-4v-4.02m0-4v-4m0-4v-4.02m0-4v-4m0-4v-4.02m0-4v-4m0-4v-4.02m0-4v-4m0-4v-4m0-4.02v-4m0-4v-4m0-4.02v-4m0-4v-4m0-4.02v-4m0-4v-4m0-4.02v-4m0-4v-4m0-4.02v-4m0-4v-4m0-4.02v-4m0-4v-4m0-4.02v-4m0-4v-4m0-4.02v-4m0-4v-4m0-4.02v-4m0-4v-4m0-4.02v-4m0-4v-4m0-4.02v-4m0-4v-4m0-4.02v-4m0-4v-2l.15-1.88.1-.46m1.8-4.32l.24-.4 1.2-1.43 1.45-1.23.4-.24m4.32-1.8l.45-.1 1.88-.15h2m4 0h2M-2281-312.05h-20m0-10v20M-2281-904.75h-20m0-10v20" stroke="#1071e5" fill="none"/><path d="M-1740-944a16 16 0 0 1 16-16h388.13a16 16 0 0 1 16 16v136a16 16 0 0 1-16 16H-1724a16 16 0 0 1-16-16z" fill="#fff"/><path d="M-1740-920h420.13v33H-1740z" fill="#fff"/><path d="M-1740-888h420.13v33H-1740z" fill="#fff"/><path d="M-1740-856h420.13v33H-1740z" fill="#fff"/><path d="M-1740-824h420.13v16a16 16 0 0 1-16 16H-1724a16 16 0 0 1-16-16z" fill="#fff"/><path d="M-1739-920h418.13H-1739zM-1740-944a16 16 0 0 1 16-16h388.13a16 16 0 0 1 16 16v136a16 16 0 0 1-16 16H-1724a16 16 0 0 1-16-16zM-1680-919v126zM-1487.88-919v126z" stroke="#000" stroke-width="2" fill="none"/><use xlink:href="#Q" transform="matrix(1,0,0,1,-1730,-960) translate(141.18701171875 26.5478515625)"/><use xlink:href="#R" transform="matrix(1,0,0,1,-1735,-917.5) translate(13.205078125 20.0478515625)"/><use xlink:href="#S" transform="matrix(1,0,0,1,-1675,-917.5) translate(83.572265625 20.0478515625)"/><use xlink:href="#T" transform="matrix(1,0,0,1,-1482.8796223958334,-917.5) translate(64.49267578125 20.0478515625)"/><use xlink:href="#U" transform="matrix(1,0,0,1,-1735,-885.5) translate(13.64013671875 20.0478515625)"/><use xlink:href="#V" transform="matrix(1,0,0,1,-1675,-885.5) translate(63.3486328125 20.0478515625)"/><use xlink:href="#W" transform="matrix(1,0,0,1,-1482.8796223958334,-885.5) translate(6.3310546875 20.0478515625)"/><use xlink:href="#X" transform="matrix(1,0,0,1,-1675,-853.5) translate(44.5751953125 20.0478515625)"/><use xlink:href="#T" transform="matrix(1,0,0,1,-1482.8796223958334,-853.5) translate(64.49267578125 20.0478515625)"/><use xlink:href="#Y" transform="matrix(1,0,0,1,-1675,-821.5) translate(37.27587890625 20.0478515625)"/><use xlink:href="#Z" transform="matrix(1,0,0,1,-1482.8796223958334,-821.5) translate(29.3935546875 20.0478515625)"/><path d="M-1761-871.98h-7a12 12 0 0 1-12-12v-8.77a12 12 0 0 0-12-12h-7.6M-1741-871.98h-20m0-10v20M-1818.78-904.75h20m-20 10l20-10m-20-10l20 10" stroke="#e81313" fill="none"/><defs><path fill="#3a414a" d="M52 0l541-1490h220L1361 0h-200l-149-416H398L254 0H52zm404-582h497c-103-290-145-390-251-756-108 377-145 460-246 756" id="aa"/><path fill="#3a414a" d="M538 24C308 24 148-78 108-271l171-41c32 123 123 178 257 178 156 0 256-77 256-169 0-77-54-128-164-154l-186-44c-203-48-300-148-300-305 0-192 176-326 414-326 230 0 351 112 402 269l-163 42c-31-80-94-158-238-158-133 0-233 69-233 162 0 83 57 129 188 160l169 40c203 48 298 149 298 302 0 196-179 339-441 339" id="ab"/><path fill="#3a414a" d="M158 418v-1536h174v179h20c37-59 106-193 324-193 279 0 474 222 474 576 0 356-194 580-473 580-213 0-288-135-325-197h-14v591H158zm492-555c209 0 317-186 317-421 0-232-105-413-317-413-206 0-314 166-314 413 0 249 111 421 314 421" id="ac"/><path fill="#3a414a" d="M180 0v-1490h224l606 953c40 63 108 177 176 312-27-437-7-821-13-1265h190V0h-226C860-448 622-778 356-1262c27 476 11 792 15 1262H180" id="ad"/><path fill="#3a414a" d="M628 24c-324 0-524-230-524-574 0-343 198-582 503-582 237 0 487 146 487 559v75H286c9 234 145 362 343 362 132 0 231-58 273-172l174 48C1024-91 857 24 628 24zM287-650h624c-17-190-120-322-304-322-192 0-309 151-320 322" id="ae"/><path fill="#3a414a" d="M598-1118v154H368v674c0 100 37 144 132 144 23 0 62-6 92-12L629-6c-37 13-88 20-134 20-193 0-307-107-307-290v-688H20v-154h168v-266h180v266h230" id="af"/><path fill="#3a414a" d="M180 0v-1490h510c348 0 508 194 508 460 0 198-88 351-276 417L1256 0h-220L726-579c-117 2-238 0-356 1V0H180zm190-747h312c235 0 327-108 327-283 0-177-92-293-329-293H370v576" id="ag"/><path fill="#3a414a" d="M613 24c-304 0-509-231-509-576 0-350 205-580 509-580 305 0 511 230 511 580 0 345-206 576-511 576zm0-161c226 0 329-195 329-415 0-222-103-419-329-419-223 0-326 196-326 419 0 220 103 415 326 415" id="ah"/><path fill="#3a414a" d="M338-1490V0H158v-1490h180" id="ai"/><g id="a"><use transform="matrix(0.0087890625,0,0,0.0087890625,0,0)" xlink:href="#aa"/><use transform="matrix(0.0087890625,0,0,0.0087890625,12.4189453125,0)" xlink:href="#ab"/><use transform="matrix(0.0087890625,0,0,0.0087890625,21.919921875,0)" xlink:href="#ac"/><use transform="matrix(0.0087890625,0,0,0.0087890625,32.94140625,0)" xlink:href="#ad"/><use transform="matrix(0.0087890625,0,0,0.0087890625,46.5029296875,0)" xlink:href="#ae"/><use transform="matrix(0.0087890625,0,0,0.0087890625,56.9970703125,0)" xlink:href="#af"/><use transform="matrix(0.0087890625,0,0,0.0087890625,62.8857421875,0)" xlink:href="#ag"/><use transform="matrix(0.0087890625,0,0,0.0087890625,74.2060546875,0)" xlink:href="#ah"/><use transform="matrix(0.0087890625,0,0,0.0087890625,84.9990234375,0)" xlink:href="#ai"/><use transform="matrix(0.0087890625,0,0,0.0087890625,89.3583984375,0)" xlink:href="#ae"/><use transform="matrix(0.0087890625,0,0,0.0087890625,99.8525390625,0)" xlink:href="#ab"/></g><path fill="#3a414a" d="M180 0v-1490h510c348 0 508 209 508 474 0 266-160 477-507 477H370V0H180zm190-706h312c236 0 327-133 327-310 0-176-91-307-329-307H370v617" id="aj"/><path fill="#3a414a" d="M180 0v-1490h190c0 262 1 526-3 784 217-279 467-523 702-784h249L716-845 1319 0h-225L585-716 370-489V0H180" id="ak"/><g id="b"><use transform="matrix(0.0087890625,0,0,0.0087890625,0,0)" xlink:href="#aj"/><use transform="matrix(0.0087890625,0,0,0.0087890625,11.49609375,0)" xlink:href="#ak"/></g><path fill="#3a414a" d="M370-1490V0H180v-1490h190" id="al"/><path fill="#3a414a" d="M577 24c-279 0-473-224-473-580 0-354 195-576 474-576 218 0 287 134 324 193h14v-551h180V0H922v-173h-20C865-111 790 24 577 24zm27-161c203 0 314-172 314-421 0-247-108-413-314-413-212 0-317 181-317 413 0 235 108 421 317 421" id="am"/><g id="c"><use transform="matrix(0.0087890625,0,0,0.0087890625,0,0)" xlink:href="#al"/><use transform="matrix(0.0087890625,0,0,0.0087890625,4.833984375,0)" xlink:href="#am"/></g><path fill="#3a414a" d="M600 0L52-1490h200c166 485 304 806 458 1336 156-533 285-846 449-1336h202L819 0H600" id="an"/><path fill="#3a414a" d="M783 20c-382 0-661-292-661-764 0-473 279-766 661-766 302 0 548 182 601 489h-190c-42-204-217-313-411-313-268 0-476 208-476 590 0 381 209 588 476 588 195 0 369-110 411-313h190c-52 303-296 489-601 489" id="ao"/><path fill="#3a414a" d="M180 0v-1490h190v644h782v-644h190V0h-190v-678H370V0H180" id="ap"/><path fill="#3a414a" d="M218-607c0-325 108-727 258-974h175c-155 315-250 682-250 974 0 265 78 531 250 886H476C306-10 218-315 218-607" id="aq"/><path fill="#3a414a" d="M120-303v-155l652-1032h231v1020h202v167h-202V0H821v-303H120zm702-167v-782h-12L323-482v12h499" id="ar"/><path fill="#3a414a" d="M626 20c-262 0-458-168-468-396h184c12 133 134 229 284 229 180 0 311-137 311-326 0-192-136-335-323-335-92 0-196 33-255 78l-178-22 88-738h784v167H429l-51 435h8c61-51 160-87 263-87 273 0 474 211 474 499 0 286-210 496-497 496" id="as"/><path fill="#3a414a" d="M646 20c-332 0-524-278-524-764 0-483 194-766 524-766s524 283 524 766c0 485-191 764-524 764zm0-166c218 0 341-220 341-598 0-380-123-601-341-601s-341 222-341 601c0 378 123 598 341 598" id="at"/><path fill="#3a414a" d="M96 279C273-86 346-350 346-607c0-292-95-659-250-974h175c150 246 258 650 258 974 0 297-91 602-258 886H96" id="au"/><g id="d"><use transform="matrix(0.0087890625,0,0,0.0087890625,0,0)" xlink:href="#ad"/><use transform="matrix(0.0087890625,0,0,0.0087890625,13.5615234375,0)" xlink:href="#an"/><use transform="matrix(0.0087890625,0,0,0.0087890625,24.75,0)" xlink:href="#aa"/><use transform="matrix(0.0087890625,0,0,0.0087890625,37.1689453125,0)" xlink:href="#ag"/><use transform="matrix(0.0087890625,0,0,0.0087890625,48.7529296875,0)" xlink:href="#ao"/><use transform="matrix(0.0087890625,0,0,0.0087890625,61.9013671875,0)" xlink:href="#ap"/><use transform="matrix(0.0087890625,0,0,0.0087890625,75.2783203125,0)" xlink:href="#aa"/><use transform="matrix(0.0087890625,0,0,0.0087890625,87.697265625,0)" xlink:href="#ag"/><use transform="matrix(0.0087890625,0,0,0.0087890625,99.28125,0)" xlink:href="#aq"/><use transform="matrix(0.0087890625,0,0,0.0087890625,105.8466796875,0)" xlink:href="#ar"/><use transform="matrix(0.0087890625,0,0,0.0087890625,117.474609375,0)" xlink:href="#as"/><use transform="matrix(0.0087890625,0,0,0.0087890625,128.4169921875,0)" xlink:href="#at"/><use transform="matrix(0.0087890625,0,0,0.0087890625,139.7724609375,0)" xlink:href="#au"/></g><path fill="#3a414a" d="M471 26C259 26 90-98 90-318c0-256 228-303 435-329 202-27 287-16 287-108 0-139-79-219-234-219-161 0-248 86-283 164l-173-57c86-203 278-265 451-265 150 0 419 46 419 395V0H815v-152h-12C765-73 660 26 471 26zm31-159c199 0 310-134 310-271v-155c-30 35-226 55-295 64-131 17-246 59-246 186 0 116 97 176 231 176" id="av"/><path fill="#3a414a" d="M158 0v-1118h175l1 205c55-151 181-225 313-225 147 0 245 90 285 228 53-141 190-228 352-228 194 0 352 125 352 384V0h-181v-749c0-161-105-225-225-225-151 0-243 103-243 244V0H807v-767c0-124-93-207-219-207-131 0-250 92-250 270V0H158" id="aw"/><g id="e"><use transform="matrix(0.0087890625,0,0,0.0087890625,0,0)" xlink:href="#ad"/><use transform="matrix(0.0087890625,0,0,0.0087890625,13.5615234375,0)" xlink:href="#av"/><use transform="matrix(0.0087890625,0,0,0.0087890625,23.6689453125,0)" xlink:href="#aw"/><use transform="matrix(0.0087890625,0,0,0.0087890625,39.4365234375,0)" xlink:href="#ae"/></g><path fill="#3a414a" d="M154 0v-137l495-537c165-179 249-281 249-418 0-156-121-253-280-253-170 0-278 110-278 278H158c0-264 200-443 465-443 266 0 455 183 455 416 0 161-73 288-336 568L416-179v12h687V0H154" id="ax"/><path fill="#3a414a" d="M646 20c-249 0-524-159-524-708 0-524 209-822 547-822 250 0 431 161 467 395H950c-33-129-126-227-281-227-229 0-367 208-367 566h12c80-124 212-198 367-198 255 0 467 205 467 493 0 278-198 501-502 501zm0-167c179 0 318-148 318-334 0-182-133-328-313-328-181 0-322 156-322 330 0 176 134 332 317 332" id="ay"/><g id="f"><use transform="matrix(0.0087890625,0,0,0.0087890625,0,0)" xlink:href="#ad"/><use transform="matrix(0.0087890625,0,0,0.0087890625,13.5615234375,0)" xlink:href="#an"/><use transform="matrix(0.0087890625,0,0,0.0087890625,24.75,0)" xlink:href="#aa"/><use transform="matrix(0.0087890625,0,0,0.0087890625,37.1689453125,0)" xlink:href="#ag"/><use transform="matrix(0.0087890625,0,0,0.0087890625,48.7529296875,0)" xlink:href="#ao"/><use transform="matrix(0.0087890625,0,0,0.0087890625,61.9013671875,0)" xlink:href="#ap"/><use transform="matrix(0.0087890625,0,0,0.0087890625,75.2783203125,0)" xlink:href="#aa"/><use transform="matrix(0.0087890625,0,0,0.0087890625,87.697265625,0)" xlink:href="#ag"/><use transform="matrix(0.0087890625,0,0,0.0087890625,99.28125,0)" xlink:href="#aq"/><use transform="matrix(0.0087890625,0,0,0.0087890625,105.8466796875,0)" xlink:href="#ax"/><use transform="matrix(0.0087890625,0,0,0.0087890625,116.82421875,0)" xlink:href="#as"/><use transform="matrix(0.0087890625,0,0,0.0087890625,127.7666015625,0)" xlink:href="#ay"/><use transform="matrix(0.0087890625,0,0,0.0087890625,138.9287109375,0)" xlink:href="#au"/></g><path fill="#3a414a" d="M158 0v-1118h174v172h12c41-113 157-188 290-188 26 0 70 2 91 3v181c-11-2-60-10-108-10-161 0-279 109-279 260V0H158" id="az"/><path fill="#3a414a" d="M158 0v-1118h180V0H158zm91-1301c-68 0-125-53-125-119s57-119 125-119c69 0 126 53 126 119s-57 119-126 119" id="aA"/><path fill="#3a414a" d="M126 0v-134l627-806v-11H146v-167h839v143L376-178v11h629V0H126" id="aB"/><g id="g"><use transform="matrix(0.0087890625,0,0,0.0087890625,0,0)" xlink:href="#ad"/><use transform="matrix(0.0087890625,0,0,0.0087890625,13.5615234375,0)" xlink:href="#ah"/><use transform="matrix(0.0087890625,0,0,0.0087890625,24.3544921875,0)" xlink:href="#az"/><use transform="matrix(0.0087890625,0,0,0.0087890625,31.412109375,0)" xlink:href="#aw"/><use transform="matrix(0.0087890625,0,0,0.0087890625,47.1796875,0)" xlink:href="#av"/><use transform="matrix(0.0087890625,0,0,0.0087890625,57.287109375,0)" xlink:href="#ai"/><use transform="matrix(0.0087890625,0,0,0.0087890625,61.646484375,0)" xlink:href="#aA"/><use transform="matrix(0.0087890625,0,0,0.0087890625,66.005859375,0)" xlink:href="#aB"/><use transform="matrix(0.0087890625,0,0,0.0087890625,75.6826171875,0)" xlink:href="#ae"/><use transform="matrix(0.0087890625,0,0,0.0087890625,86.1767578125,0)" xlink:href="#am"/><use transform="matrix(0.0087890625,0,0,0.0087890625,97.1982421875,0)" xlink:href="#ad"/><use transform="matrix(0.0087890625,0,0,0.0087890625,110.759765625,0)" xlink:href="#av"/><use transform="matrix(0.0087890625,0,0,0.0087890625,120.8671875,0)" xlink:href="#aw"/><use transform="matrix(0.0087890625,0,0,0.0087890625,136.634765625,0)" xlink:href="#ae"/></g><path fill="#3a414a" d="M338-670V0H158v-1118h173l1 207c72-158 192-221 342-221 226 0 378 139 378 422V0H872v-695c0-172-96-275-252-275-161 0-282 109-282 300" id="aC"/><path fill="#3a414a" d="M613 24c-304 0-509-231-509-576 0-350 205-580 509-580 216 0 392 114 453 309l-173 49c-33-115-133-197-280-197-223 0-326 196-326 419 0 220 103 415 326 415 150 0 252-85 285-206l172 49C1010-95 832 24 613 24" id="aD"/><path fill="#3a414a" d="M537 14c-226 0-379-139-379-422v-710h180v695c0 172 97 275 253 275 160 0 281-109 281-300v-670h181V0H879v-209C806-46 684 14 537 14" id="aE"/><path fill="#3a414a" d="M140 405l46-156c120 36 205 19 263-150l32-93L54-1118h197c107 313 237 620 324 950 87-331 219-637 326-950h196L606 167c-68 178-176 259-334 259-64 0-113-12-132-21" id="aF"/><path fill="#3a414a" d="M657 26c-323 0-524-166-541-416h195c15 169 171 246 346 246 202 0 356-106 356-265 5-203-294-238-475-293-239-73-380-191-380-389 0-252 224-419 512-419 294 0 499 171 508 396H992c-17-145-151-228-328-228-193 0-321 102-321 242 0 156 175 211 284 241l149 41c160 44 422 134 422 412 0 244-197 432-541 432" id="aG"/><g id="h"><use transform="matrix(0.0087890625,0,0,0.0087890625,0,0)" xlink:href="#ao"/><use transform="matrix(0.0087890625,0,0,0.0087890625,13.1484375,0)" xlink:href="#ah"/><use transform="matrix(0.0087890625,0,0,0.0087890625,23.94140625,0)" xlink:href="#aC"/><use transform="matrix(0.0087890625,0,0,0.0087890625,34.576171875,0)" xlink:href="#aD"/><use transform="matrix(0.0087890625,0,0,0.0087890625,44.859375,0)" xlink:href="#aE"/><use transform="matrix(0.0087890625,0,0,0.0087890625,55.5029296875,0)" xlink:href="#az"/><use transform="matrix(0.0087890625,0,0,0.0087890625,62.560546875,0)" xlink:href="#az"/><use transform="matrix(0.0087890625,0,0,0.0087890625,69.0380859375,0)" xlink:href="#ae"/><use transform="matrix(0.0087890625,0,0,0.0087890625,79.5322265625,0)" xlink:href="#aC"/><use transform="matrix(0.0087890625,0,0,0.0087890625,90.1669921875,0)" xlink:href="#aD"/><use transform="matrix(0.0087890625,0,0,0.0087890625,100.0986328125,0)" xlink:href="#aF"/><use transform="matrix(0.0087890625,0,0,0.0087890625,110.21484375,0)" xlink:href="#aG"/><use transform="matrix(0.0087890625,0,0,0.0087890625,121.763671875,0)" xlink:href="#af"/><use transform="matrix(0.0087890625,0,0,0.0087890625,127.740234375,0)" xlink:href="#av"/><use transform="matrix(0.0087890625,0,0,0.0087890625,137.84765625,0)" xlink:href="#aw"/><use transform="matrix(0.0087890625,0,0,0.0087890625,153.615234375,0)" xlink:href="#ac"/></g><path fill="#3a414a" d="M180 0v-1490h270l367 940c28 72 75 218 110 339 35-117 81-264 110-339l362-940h271V0h-187c2-448-5-837 7-1287-157 497-311 829-483 1287H842C666-458 514-784 354-1284c12 438 5 843 7 1284H180" id="aH"/><path fill="#3a414a" d="M57 0l534-763-501-727h220c122 187 296 416 391 605 94-191 272-419 396-605h215L811-770 1340 0h-219C986-204 811-426 699-640 588-430 407-202 273 0H57" id="aI"/><g id="i"><use transform="matrix(0.0087890625,0,0,0.0087890625,0,0)" xlink:href="#ad"/><use transform="matrix(0.0087890625,0,0,0.0087890625,13.5615234375,0)" xlink:href="#an"/><use transform="matrix(0.0087890625,0,0,0.0087890625,24.75,0)" xlink:href="#aa"/><use transform="matrix(0.0087890625,0,0,0.0087890625,37.1689453125,0)" xlink:href="#ag"/><use transform="matrix(0.0087890625,0,0,0.0087890625,48.7529296875,0)" xlink:href="#ao"/><use transform="matrix(0.0087890625,0,0,0.0087890625,61.9013671875,0)" xlink:href="#ap"/><use transform="matrix(0.0087890625,0,0,0.0087890625,75.2783203125,0)" xlink:href="#aa"/><use transform="matrix(0.0087890625,0,0,0.0087890625,87.697265625,0)" xlink:href="#ag"/><use transform="matrix(0.0087890625,0,0,0.0087890625,99.28125,0)" xlink:href="#aq"/><use transform="matrix(0.0087890625,0,0,0.0087890625,105.8466796875,0)" xlink:href="#aH"/><use transform="matrix(0.0087890625,0,0,0.0087890625,122.1064453125,0)" xlink:href="#aa"/><use transform="matrix(0.0087890625,0,0,0.0087890625,134.525390625,0)" xlink:href="#aI"/><use transform="matrix(0.0087890625,0,0,0.0087890625,146.8037109375,0)" xlink:href="#au"/></g><path fill="#3a414a" d="M763 24c-353 0-583-224-583-531v-983h190v968c0 214 149 370 393 370 243 0 391-156 391-370v-968h190v983c0 307-230 531-581 531" id="aJ"/><g id="j"><use transform="matrix(0.0087890625,0,0,0.0087890625,0,0)" xlink:href="#aa"/><use transform="matrix(0.0087890625,0,0,0.0087890625,12.4189453125,0)" xlink:href="#ab"/><use transform="matrix(0.0087890625,0,0,0.0087890625,21.919921875,0)" xlink:href="#ac"/><use transform="matrix(0.0087890625,0,0,0.0087890625,32.94140625,0)" xlink:href="#ad"/><use transform="matrix(0.0087890625,0,0,0.0087890625,46.5029296875,0)" xlink:href="#ae"/><use transform="matrix(0.0087890625,0,0,0.0087890625,56.9970703125,0)" xlink:href="#af"/><use transform="matrix(0.0087890625,0,0,0.0087890625,62.8857421875,0)" xlink:href="#aJ"/><use transform="matrix(0.0087890625,0,0,0.0087890625,76.2802734375,0)" xlink:href="#ab"/><use transform="matrix(0.0087890625,0,0,0.0087890625,85.78125,0)" xlink:href="#ae"/><use transform="matrix(0.0087890625,0,0,0.0087890625,96.275390625,0)" xlink:href="#az"/><use transform="matrix(0.0087890625,0,0,0.0087890625,103.0517578125,0)" xlink:href="#ab"/></g><g id="k"><use transform="matrix(0.0087890625,0,0,0.0087890625,0,0)" xlink:href="#aJ"/><use transform="matrix(0.0087890625,0,0,0.0087890625,13.39453125,0)" xlink:href="#ab"/><use transform="matrix(0.0087890625,0,0,0.0087890625,22.8955078125,0)" xlink:href="#ae"/><use transform="matrix(0.0087890625,0,0,0.0087890625,33.3896484375,0)" xlink:href="#az"/><use transform="matrix(0.0087890625,0,0,0.0087890625,40.447265625,0)" xlink:href="#ad"/><use transform="matrix(0.0087890625,0,0,0.0087890625,54.0087890625,0)" xlink:href="#av"/><use transform="matrix(0.0087890625,0,0,0.0087890625,64.1162109375,0)" xlink:href="#aw"/><use transform="matrix(0.0087890625,0,0,0.0087890625,79.8837890625,0)" xlink:href="#ae"/></g><g id="l"><use transform="matrix(0.0087890625,0,0,0.0087890625,0,0)" xlink:href="#ad"/><use transform="matrix(0.0087890625,0,0,0.0087890625,13.5615234375,0)" xlink:href="#ah"/><use transform="matrix(0.0087890625,0,0,0.0087890625,24.3544921875,0)" xlink:href="#az"/><use transform="matrix(0.0087890625,0,0,0.0087890625,31.412109375,0)" xlink:href="#aw"/><use transform="matrix(0.0087890625,0,0,0.0087890625,47.1796875,0)" xlink:href="#av"/><use transform="matrix(0.0087890625,0,0,0.0087890625,57.287109375,0)" xlink:href="#ai"/><use transform="matrix(0.0087890625,0,0,0.0087890625,61.646484375,0)" xlink:href="#aA"/><use transform="matrix(0.0087890625,0,0,0.0087890625,66.005859375,0)" xlink:href="#aB"/><use transform="matrix(0.0087890625,0,0,0.0087890625,75.6826171875,0)" xlink:href="#ae"/><use transform="matrix(0.0087890625,0,0,0.0087890625,86.1767578125,0)" xlink:href="#am"/><use transform="matrix(0.0087890625,0,0,0.0087890625,97.1982421875,0)" xlink:href="#aJ"/><use transform="matrix(0.0087890625,0,0,0.0087890625,110.5927734375,0)" xlink:href="#ab"/><use transform="matrix(0.0087890625,0,0,0.0087890625,120.09375,0)" xlink:href="#ae"/><use transform="matrix(0.0087890625,0,0,0.0087890625,130.587890625,0)" xlink:href="#az"/><use transform="matrix(0.0087890625,0,0,0.0087890625,137.6455078125,0)" xlink:href="#ad"/><use transform="matrix(0.0087890625,0,0,0.0087890625,151.20703125,0)" xlink:href="#av"/><use transform="matrix(0.0087890625,0,0,0.0087890625,161.314453125,0)" xlink:href="#aw"/><use transform="matrix(0.0087890625,0,0,0.0087890625,177.08203125,0)" xlink:href="#ae"/></g><path fill="#3a414a" d="M180 0v-1490h908v168H370v486h669v168H370v500h727V0H180" id="aK"/><g id="m"><use transform="matrix(0.0087890625,0,0,0.0087890625,0,0)" xlink:href="#aK"/><use transform="matrix(0.0087890625,0,0,0.0087890625,10.8193359375,0)" xlink:href="#aw"/><use transform="matrix(0.0087890625,0,0,0.0087890625,26.5869140625,0)" xlink:href="#av"/><use transform="matrix(0.0087890625,0,0,0.0087890625,36.6943359375,0)" xlink:href="#aA"/><use transform="matrix(0.0087890625,0,0,0.0087890625,41.0537109375,0)" xlink:href="#ai"/></g><g id="n"><use transform="matrix(0.0087890625,0,0,0.0087890625,0,0)" xlink:href="#ad"/><use transform="matrix(0.0087890625,0,0,0.0087890625,13.5615234375,0)" xlink:href="#ah"/><use transform="matrix(0.0087890625,0,0,0.0087890625,24.3544921875,0)" xlink:href="#az"/><use transform="matrix(0.0087890625,0,0,0.0087890625,31.412109375,0)" xlink:href="#aw"/><use transform="matrix(0.0087890625,0,0,0.0087890625,47.1796875,0)" xlink:href="#av"/><use transform="matrix(0.0087890625,0,0,0.0087890625,57.287109375,0)" xlink:href="#ai"/><use transform="matrix(0.0087890625,0,0,0.0087890625,61.646484375,0)" xlink:href="#aA"/><use transform="matrix(0.0087890625,0,0,0.0087890625,66.005859375,0)" xlink:href="#aB"/><use transform="matrix(0.0087890625,0,0,0.0087890625,75.6826171875,0)" xlink:href="#ae"/><use transform="matrix(0.0087890625,0,0,0.0087890625,86.1767578125,0)" xlink:href="#am"/><use transform="matrix(0.0087890625,0,0,0.0087890625,97.1982421875,0)" xlink:href="#aK"/><use transform="matrix(0.0087890625,0,0,0.0087890625,108.017578125,0)" xlink:href="#aw"/><use transform="matrix(0.0087890625,0,0,0.0087890625,123.78515625,0)" xlink:href="#av"/><use transform="matrix(0.0087890625,0,0,0.0087890625,133.892578125,0)" xlink:href="#aA"/><use transform="matrix(0.0087890625,0,0,0.0087890625,138.251953125,0)" xlink:href="#ai"/></g><path fill="#3a414a" d="M409 0L70-1118h191c89 329 165 560 243 925 75-353 154-601 240-925h192c85 325 161 564 235 922 77-354 157-598 244-922h191L1267 0h-179c-86-307-176-590-250-913C763-588 675-308 588 0H409" id="aL"/><path fill="#3a414a" d="M338-670V0H158v-1490h180v566c73-149 190-208 336-208 226 0 379 139 379 422V0H872v-695c0-172-96-275-252-275-161 0-282 109-282 300" id="aM"/><g id="o"><use transform="matrix(0.0087890625,0,0,0.0087890625,0,0)" xlink:href="#aj"/><use transform="matrix(0.0087890625,0,0,0.0087890625,11.49609375,0)" xlink:href="#av"/><use transform="matrix(0.0087890625,0,0,0.0087890625,21.603515625,0)" xlink:href="#ab"/><use transform="matrix(0.0087890625,0,0,0.0087890625,31.1044921875,0)" xlink:href="#ab"/><use transform="matrix(0.0087890625,0,0,0.0087890625,40.60546875,0)" xlink:href="#aL"/><use transform="matrix(0.0087890625,0,0,0.0087890625,55.0107421875,0)" xlink:href="#ah"/><use transform="matrix(0.0087890625,0,0,0.0087890625,65.8037109375,0)" xlink:href="#az"/><use transform="matrix(0.0087890625,0,0,0.0087890625,72.28125,0)" xlink:href="#am"/><use transform="matrix(0.0087890625,0,0,0.0087890625,83.302734375,0)" xlink:href="#ap"/><use transform="matrix(0.0087890625,0,0,0.0087890625,96.6796875,0)" xlink:href="#av"/><use transform="matrix(0.0087890625,0,0,0.0087890625,106.787109375,0)" xlink:href="#ab"/><use transform="matrix(0.0087890625,0,0,0.0087890625,116.2880859375,0)" xlink:href="#aM"/></g><g id="p"><use transform="matrix(0.0087890625,0,0,0.0087890625,0,0)" xlink:href="#aG"/><use transform="matrix(0.0087890625,0,0,0.0087890625,11.548828125,0)" xlink:href="#ae"/><use transform="matrix(0.0087890625,0,0,0.0087890625,22.04296875,0)" xlink:href="#aD"/><use transform="matrix(0.0087890625,0,0,0.0087890625,32.326171875,0)" xlink:href="#aE"/><use transform="matrix(0.0087890625,0,0,0.0087890625,42.9697265625,0)" xlink:href="#az"/><use transform="matrix(0.0087890625,0,0,0.0087890625,50.02734375,0)" xlink:href="#aA"/><use transform="matrix(0.0087890625,0,0,0.0087890625,54.38671875,0)" xlink:href="#af"/><use transform="matrix(0.0087890625,0,0,0.0087890625,60.626953125,0)" xlink:href="#aF"/><use transform="matrix(0.0087890625,0,0,0.0087890625,70.7431640625,0)" xlink:href="#aG"/><use transform="matrix(0.0087890625,0,0,0.0087890625,82.2919921875,0)" xlink:href="#af"/><use transform="matrix(0.0087890625,0,0,0.0087890625,88.2685546875,0)" xlink:href="#av"/><use transform="matrix(0.0087890625,0,0,0.0087890625,98.3759765625,0)" xlink:href="#aw"/><use transform="matrix(0.0087890625,0,0,0.0087890625,114.1435546875,0)" xlink:href="#ac"/></g><path fill="#3a414a" d="M677 24c-213 0-288-135-325-197h-20V0H158v-1490h180v551h14c37-59 106-193 324-193 279 0 474 222 474 576 0 356-194 580-473 580zm-27-161c209 0 317-186 317-421 0-232-105-413-317-413-206 0-314 166-314 413 0 249 111 421 314 421" id="aN"/><g id="q"><use transform="matrix(0.0087890625,0,0,0.0087890625,0,0)" xlink:href="#aj"/><use transform="matrix(0.0087890625,0,0,0.0087890625,11.49609375,0)" xlink:href="#aM"/><use transform="matrix(0.0087890625,0,0,0.0087890625,22.1396484375,0)" xlink:href="#ah"/><use transform="matrix(0.0087890625,0,0,0.0087890625,32.9326171875,0)" xlink:href="#aC"/><use transform="matrix(0.0087890625,0,0,0.0087890625,43.5673828125,0)" xlink:href="#ae"/><use transform="matrix(0.0087890625,0,0,0.0087890625,54.0615234375,0)" xlink:href="#ad"/><use transform="matrix(0.0087890625,0,0,0.0087890625,67.623046875,0)" xlink:href="#aE"/><use transform="matrix(0.0087890625,0,0,0.0087890625,78.2666015625,0)" xlink:href="#aw"/><use transform="matrix(0.0087890625,0,0,0.0087890625,94.0341796875,0)" xlink:href="#aN"/><use transform="matrix(0.0087890625,0,0,0.0087890625,105.0556640625,0)" xlink:href="#ae"/><use transform="matrix(0.0087890625,0,0,0.0087890625,115.5498046875,0)" xlink:href="#az"/></g><path fill="#3a414a" d="M98-1322v-168h1126v168H757V0H567v-1322H98" id="aO"/><path fill="#3a414a" d="M180 0v-1490h901v168H370v510h643v168H370V0H180" id="aP"/><g id="r"><use transform="matrix(0.0087890625,0,0,0.0087890625,0,0)" xlink:href="#aO"/><use transform="matrix(0.0087890625,0,0,0.0087890625,10.494140625,0)" xlink:href="#aL"/><use transform="matrix(0.0087890625,0,0,0.0087890625,24.8994140625,0)" xlink:href="#ah"/><use transform="matrix(0.0087890625,0,0,0.0087890625,35.6923828125,0)" xlink:href="#aP"/><use transform="matrix(0.0087890625,0,0,0.0087890625,45.87890625,0)" xlink:href="#av"/><use transform="matrix(0.0087890625,0,0,0.0087890625,55.986328125,0)" xlink:href="#aD"/><use transform="matrix(0.0087890625,0,0,0.0087890625,66.26953125,0)" xlink:href="#af"/><use transform="matrix(0.0087890625,0,0,0.0087890625,71.982421875,0)" xlink:href="#ah"/><use transform="matrix(0.0087890625,0,0,0.0087890625,82.775390625,0)" xlink:href="#az"/><use transform="matrix(0.0087890625,0,0,0.0087890625,89.8330078125,0)" xlink:href="#aK"/><use transform="matrix(0.0087890625,0,0,0.0087890625,100.65234375,0)" xlink:href="#aC"/><use transform="matrix(0.0087890625,0,0,0.0087890625,111.287109375,0)" xlink:href="#av"/><use transform="matrix(0.0087890625,0,0,0.0087890625,121.39453125,0)" xlink:href="#aN"/><use transform="matrix(0.0087890625,0,0,0.0087890625,132.416015625,0)" xlink:href="#ai"/><use transform="matrix(0.0087890625,0,0,0.0087890625,136.775390625,0)" xlink:href="#ae"/><use transform="matrix(0.0087890625,0,0,0.0087890625,147.26953125,0)" xlink:href="#am"/></g><path fill="#3a414a" d="M180 0v-1490h528c311 0 458 177 458 395 0 191-114 278-244 313v14c139 9 302 137 302 371 0 225-148 397-499 397H180zm190-168h350c232 0 321-102 321-231 0-149-120-277-311-277H370v508zm0-668h328c160 0 286-101 286-255 0-129-87-231-280-231H370v486" id="aQ"/><g id="s"><use transform="matrix(0.0087890625,0,0,0.0087890625,0,0)" xlink:href="#aQ"/><use transform="matrix(0.0087890625,0,0,0.0087890625,11.77734375,0)" xlink:href="#al"/><use transform="matrix(0.0087890625,0,0,0.0087890625,16.611328125,0)" xlink:href="#aO"/></g><path fill="#3a414a" d="M180 0v-1490h190v1322h690V0H180" id="aR"/><path fill="#3a414a" d="M158 0v-1490h180v865h22l478-493h223L593-638 1096 0H865L456-523 338-412V0H158" id="aS"/><g id="t"><use transform="matrix(0.0087890625,0,0,0.0087890625,0,0)" xlink:href="#aR"/><use transform="matrix(0.0087890625,0,0,0.0087890625,10.177734375,0)" xlink:href="#ah"/><use transform="matrix(0.0087890625,0,0,0.0087890625,20.970703125,0)" xlink:href="#aD"/><use transform="matrix(0.0087890625,0,0,0.0087890625,31.25390625,0)" xlink:href="#aS"/><use transform="matrix(0.0087890625,0,0,0.0087890625,40.728515625,0)" xlink:href="#ah"/><use transform="matrix(0.0087890625,0,0,0.0087890625,51.521484375,0)" xlink:href="#aE"/><use transform="matrix(0.0087890625,0,0,0.0087890625,62.1650390625,0)" xlink:href="#af"/><use transform="matrix(0.0087890625,0,0,0.0087890625,68.0537109375,0)" xlink:href="#aK"/><use transform="matrix(0.0087890625,0,0,0.0087890625,78.873046875,0)" xlink:href="#aC"/><use transform="matrix(0.0087890625,0,0,0.0087890625,89.5078125,0)" xlink:href="#am"/></g><path fill="#3a414a" d="M645 0H180v-1490h484c435 0 692 280 692 742 0 466-257 748-711 748zM370-168h263c363 0 539-218 539-580 0-358-176-574-521-574H370v1154" id="aT"/><path fill="#3a414a" d="M784 20c-382 0-662-292-662-764 0-473 280-766 662-766s660 293 660 766c0 472-278 764-660 764zm0-176c266 0 475-207 475-588 0-383-209-590-475-590-268 0-477 208-477 590 0 380 209 588 477 588" id="aU"/><g id="u"><use transform="matrix(0.0087890625,0,0,0.0087890625,0,0)" xlink:href="#aT"/><use transform="matrix(0.0087890625,0,0,0.0087890625,12.375,0)" xlink:href="#aa"/><use transform="matrix(0.0087890625,0,0,0.0087890625,23.2646484375,0)" xlink:href="#aO"/><use transform="matrix(0.0087890625,0,0,0.0087890625,34.8837890625,0)" xlink:href="#aK"/><use transform="matrix(0.0087890625,0,0,0.0087890625,45.703125,0)" xlink:href="#aO"/><use transform="matrix(0.0087890625,0,0,0.0087890625,57.322265625,0)" xlink:href="#al"/><use transform="matrix(0.0087890625,0,0,0.0087890625,62.15625,0)" xlink:href="#aH"/><use transform="matrix(0.0087890625,0,0,0.0087890625,78.416015625,0)" xlink:href="#aK"/><use transform="matrix(0.0087890625,0,0,0.0087890625,89.2353515625,0)" xlink:href="#aU"/><use transform="matrix(0.0087890625,0,0,0.0087890625,102.9990234375,0)" xlink:href="#aP"/><use transform="matrix(0.0087890625,0,0,0.0087890625,113.625,0)" xlink:href="#aP"/><use transform="matrix(0.0087890625,0,0,0.0087890625,124.2509765625,0)" xlink:href="#aG"/><use transform="matrix(0.0087890625,0,0,0.0087890625,135.7998046875,0)" xlink:href="#aK"/><use transform="matrix(0.0087890625,0,0,0.0087890625,146.619140625,0)" xlink:href="#aO"/></g><g id="v"><use transform="matrix(0.0087890625,0,0,0.0087890625,0,0)" xlink:href="#aR"/><use transform="matrix(0.0087890625,0,0,0.0087890625,10.177734375,0)" xlink:href="#ah"/><use transform="matrix(0.0087890625,0,0,0.0087890625,20.970703125,0)" xlink:href="#aD"/><use transform="matrix(0.0087890625,0,0,0.0087890625,31.25390625,0)" xlink:href="#aS"/><use transform="matrix(0.0087890625,0,0,0.0087890625,40.728515625,0)" xlink:href="#ah"/><use transform="matrix(0.0087890625,0,0,0.0087890625,51.521484375,0)" xlink:href="#aE"/><use transform="matrix(0.0087890625,0,0,0.0087890625,62.1650390625,0)" xlink:href="#af"/><use transform="matrix(0.0087890625,0,0,0.0087890625,68.0537109375,0)" xlink:href="#aK"/><use transform="matrix(0.0087890625,0,0,0.0087890625,78.873046875,0)" xlink:href="#aC"/><use transform="matrix(0.0087890625,0,0,0.0087890625,89.5078125,0)" xlink:href="#av"/><use transform="matrix(0.0087890625,0,0,0.0087890625,99.615234375,0)" xlink:href="#aN"/><use transform="matrix(0.0087890625,0,0,0.0087890625,110.63671875,0)" xlink:href="#ai"/><use transform="matrix(0.0087890625,0,0,0.0087890625,114.99609375,0)" xlink:href="#ae"/><use transform="matrix(0.0087890625,0,0,0.0087890625,125.490234375,0)" xlink:href="#am"/></g><g id="w"><use transform="matrix(0.0087890625,0,0,0.0087890625,0,0)" xlink:href="#aa"/><use transform="matrix(0.0087890625,0,0,0.0087890625,12.4189453125,0)" xlink:href="#aD"/><use transform="matrix(0.0087890625,0,0,0.0087890625,22.7021484375,0)" xlink:href="#aD"/><use transform="matrix(0.0087890625,0,0,0.0087890625,32.9853515625,0)" xlink:href="#ae"/><use transform="matrix(0.0087890625,0,0,0.0087890625,43.4794921875,0)" xlink:href="#ab"/><use transform="matrix(0.0087890625,0,0,0.0087890625,52.98046875,0)" xlink:href="#ab"/><use transform="matrix(0.0087890625,0,0,0.0087890625,62.4814453125,0)" xlink:href="#aP"/><use transform="matrix(0.0087890625,0,0,0.0087890625,72.66796875,0)" xlink:href="#av"/><use transform="matrix(0.0087890625,0,0,0.0087890625,82.775390625,0)" xlink:href="#aA"/><use transform="matrix(0.0087890625,0,0,0.0087890625,87.134765625,0)" xlink:href="#ai"/><use transform="matrix(0.0087890625,0,0,0.0087890625,91.494140625,0)" xlink:href="#ae"/><use transform="matrix(0.0087890625,0,0,0.0087890625,101.98828125,0)" xlink:href="#am"/><use transform="matrix(0.0087890625,0,0,0.0087890625,113.009765625,0)" xlink:href="#ao"/><use transform="matrix(0.0087890625,0,0,0.0087890625,126.158203125,0)" xlink:href="#ah"/><use transform="matrix(0.0087890625,0,0,0.0087890625,136.951171875,0)" xlink:href="#aE"/><use transform="matrix(0.0087890625,0,0,0.0087890625,147.5947265625,0)" xlink:href="#aC"/><use transform="matrix(0.0087890625,0,0,0.0087890625,158.2294921875,0)" xlink:href="#af"/></g><g id="x"><use transform="matrix(0.0087890625,0,0,0.0087890625,0,0)" xlink:href="#al"/><use transform="matrix(0.0087890625,0,0,0.0087890625,4.833984375,0)" xlink:href="#ad"/><use transform="matrix(0.0087890625,0,0,0.0087890625,18.3955078125,0)" xlink:href="#aO"/></g><g id="y"><use transform="matrix(0.0087890625,0,0,0.0087890625,0,0)" xlink:href="#aa"/><use transform="matrix(0.0087890625,0,0,0.0087890625,12.4189453125,0)" xlink:href="#ab"/><use transform="matrix(0.0087890625,0,0,0.0087890625,21.919921875,0)" xlink:href="#ac"/><use transform="matrix(0.0087890625,0,0,0.0087890625,32.94140625,0)" xlink:href="#ad"/><use transform="matrix(0.0087890625,0,0,0.0087890625,46.5029296875,0)" xlink:href="#ae"/><use transform="matrix(0.0087890625,0,0,0.0087890625,56.9970703125,0)" xlink:href="#af"/><use transform="matrix(0.0087890625,0,0,0.0087890625,62.8857421875,0)" xlink:href="#aJ"/><use transform="matrix(0.0087890625,0,0,0.0087890625,76.2802734375,0)" xlink:href="#ab"/><use transform="matrix(0.0087890625,0,0,0.0087890625,85.78125,0)" xlink:href="#ae"/><use transform="matrix(0.0087890625,0,0,0.0087890625,96.275390625,0)" xlink:href="#az"/><use transform="matrix(0.0087890625,0,0,0.0087890625,103.3330078125,0)" xlink:href="#ag"/><use transform="matrix(0.0087890625,0,0,0.0087890625,114.6533203125,0)" xlink:href="#ah"/><use transform="matrix(0.0087890625,0,0,0.0087890625,125.4462890625,0)" xlink:href="#ai"/><use transform="matrix(0.0087890625,0,0,0.0087890625,129.8056640625,0)" xlink:href="#ae"/><use transform="matrix(0.0087890625,0,0,0.0087890625,140.2998046875,0)" xlink:href="#ab"/></g><g id="z"><use transform="matrix(0.0087890625,0,0,0.0087890625,0,0)" xlink:href="#aJ"/><use transform="matrix(0.0087890625,0,0,0.0087890625,13.39453125,0)" xlink:href="#ab"/><use transform="matrix(0.0087890625,0,0,0.0087890625,22.8955078125,0)" xlink:href="#ae"/><use transform="matrix(0.0087890625,0,0,0.0087890625,33.3896484375,0)" xlink:href="#az"/><use transform="matrix(0.0087890625,0,0,0.0087890625,40.447265625,0)" xlink:href="#al"/><use transform="matrix(0.0087890625,0,0,0.0087890625,45.28125,0)" xlink:href="#am"/></g><g id="A"><use transform="matrix(0.0087890625,0,0,0.0087890625,0,0)" xlink:href="#ag"/><use transform="matrix(0.0087890625,0,0,0.0087890625,11.3203125,0)" xlink:href="#ah"/><use transform="matrix(0.0087890625,0,0,0.0087890625,22.11328125,0)" xlink:href="#ai"/><use transform="matrix(0.0087890625,0,0,0.0087890625,26.47265625,0)" xlink:href="#ae"/><use transform="matrix(0.0087890625,0,0,0.0087890625,36.966796875,0)" xlink:href="#al"/><use transform="matrix(0.0087890625,0,0,0.0087890625,41.80078125,0)" xlink:href="#am"/></g><g id="B"><use transform="matrix(0.0087890625,0,0,0.0087890625,0,0)" xlink:href="#ag"/><use transform="matrix(0.0087890625,0,0,0.0087890625,11.3203125,0)" xlink:href="#ae"/><use transform="matrix(0.0087890625,0,0,0.0087890625,21.814453125,0)" xlink:href="#ac"/><use transform="matrix(0.0087890625,0,0,0.0087890625,32.8359375,0)" xlink:href="#ah"/><use transform="matrix(0.0087890625,0,0,0.0087890625,43.62890625,0)" xlink:href="#az"/><use transform="matrix(0.0087890625,0,0,0.0087890625,50.6865234375,0)" xlink:href="#af"/><use transform="matrix(0.0087890625,0,0,0.0087890625,56.3994140625,0)" xlink:href="#ab"/></g><g id="C"><use transform="matrix(0.0087890625,0,0,0.0087890625,0,0)" xlink:href="#aT"/><use transform="matrix(0.0087890625,0,0,0.0087890625,12.990234375,0)" xlink:href="#ae"/><use transform="matrix(0.0087890625,0,0,0.0087890625,23.484375,0)" xlink:href="#ab"/><use transform="matrix(0.0087890625,0,0,0.0087890625,32.9853515625,0)" xlink:href="#aD"/><use transform="matrix(0.0087890625,0,0,0.0087890625,43.2685546875,0)" xlink:href="#az"/><use transform="matrix(0.0087890625,0,0,0.0087890625,50.326171875,0)" xlink:href="#aA"/><use transform="matrix(0.0087890625,0,0,0.0087890625,54.685546875,0)" xlink:href="#ac"/><use transform="matrix(0.0087890625,0,0,0.0087890625,65.70703125,0)" xlink:href="#af"/><use transform="matrix(0.0087890625,0,0,0.0087890625,71.595703125,0)" xlink:href="#aA"/><use transform="matrix(0.0087890625,0,0,0.0087890625,75.955078125,0)" xlink:href="#ah"/><use transform="matrix(0.0087890625,0,0,0.0087890625,86.748046875,0)" xlink:href="#aC"/></g><g id="D"><use transform="matrix(0.0087890625,0,0,0.0087890625,0,0)" xlink:href="#aG"/><use transform="matrix(0.0087890625,0,0,0.0087890625,11.548828125,0)" xlink:href="#af"/><use transform="matrix(0.0087890625,0,0,0.0087890625,17.525390625,0)" xlink:href="#av"/><use transform="matrix(0.0087890625,0,0,0.0087890625,27.6328125,0)" xlink:href="#af"/><use transform="matrix(0.0087890625,0,0,0.0087890625,33.521484375,0)" xlink:href="#aE"/><use transform="matrix(0.0087890625,0,0,0.0087890625,44.1650390625,0)" xlink:href="#ab"/></g><g id="E"><use transform="matrix(0.0087890625,0,0,0.0087890625,0,0)" xlink:href="#ad"/><use transform="matrix(0.0087890625,0,0,0.0087890625,13.5615234375,0)" xlink:href="#an"/><use transform="matrix(0.0087890625,0,0,0.0087890625,24.75,0)" xlink:href="#aa"/><use transform="matrix(0.0087890625,0,0,0.0087890625,37.1689453125,0)" xlink:href="#ag"/><use transform="matrix(0.0087890625,0,0,0.0087890625,48.7529296875,0)" xlink:href="#ao"/><use transform="matrix(0.0087890625,0,0,0.0087890625,61.9013671875,0)" xlink:href="#ap"/><use transform="matrix(0.0087890625,0,0,0.0087890625,75.2783203125,0)" xlink:href="#aa"/><use transform="matrix(0.0087890625,0,0,0.0087890625,87.697265625,0)" xlink:href="#ag"/><use transform="matrix(0.0087890625,0,0,0.0087890625,99.28125,0)" xlink:href="#aq"/><use transform="matrix(0.0087890625,0,0,0.0087890625,105.8466796875,0)" xlink:href="#as"/><use transform="matrix(0.0087890625,0,0,0.0087890625,116.7890625,0)" xlink:href="#at"/><use transform="matrix(0.0087890625,0,0,0.0087890625,128.14453125,0)" xlink:href="#au"/></g><g id="F"><use transform="matrix(0.0087890625,0,0,0.0087890625,0,0)" xlink:href="#ao"/><use transform="matrix(0.0087890625,0,0,0.0087890625,13.1484375,0)" xlink:href="#az"/><use transform="matrix(0.0087890625,0,0,0.0087890625,19.6259765625,0)" xlink:href="#ae"/><use transform="matrix(0.0087890625,0,0,0.0087890625,30.2958984375,0)" xlink:href="#av"/><use transform="matrix(0.0087890625,0,0,0.0087890625,40.4033203125,0)" xlink:href="#af"/><use transform="matrix(0.0087890625,0,0,0.0087890625,46.1162109375,0)" xlink:href="#ae"/><use transform="matrix(0.0087890625,0,0,0.0087890625,56.6103515625,0)" xlink:href="#am"/><use transform="matrix(0.0087890625,0,0,0.0087890625,67.6318359375,0)" xlink:href="#aa"/><use transform="matrix(0.0087890625,0,0,0.0087890625,79.69921875,0)" xlink:href="#af"/></g><g id="G"><use transform="matrix(0.0087890625,0,0,0.0087890625,0,0)" xlink:href="#aT"/><use transform="matrix(0.0087890625,0,0,0.0087890625,12.375,0)" xlink:href="#aa"/><use transform="matrix(0.0087890625,0,0,0.0087890625,23.2646484375,0)" xlink:href="#aO"/><use transform="matrix(0.0087890625,0,0,0.0087890625,34.8837890625,0)" xlink:href="#aK"/><use transform="matrix(0.0087890625,0,0,0.0087890625,45.703125,0)" xlink:href="#aO"/><use transform="matrix(0.0087890625,0,0,0.0087890625,57.322265625,0)" xlink:href="#al"/><use transform="matrix(0.0087890625,0,0,0.0087890625,62.15625,0)" xlink:href="#aH"/><use transform="matrix(0.0087890625,0,0,0.0087890625,78.416015625,0)" xlink:href="#aK"/><use transform="matrix(0.0087890625,0,0,0.0087890625,89.2353515625,0)" xlink:href="#ax"/></g><g id="H"><use transform="matrix(0.0087890625,0,0,0.0087890625,0,0)" xlink:href="#aR"/><use transform="matrix(0.0087890625,0,0,0.0087890625,10.177734375,0)" xlink:href="#av"/><use transform="matrix(0.0087890625,0,0,0.0087890625,20.28515625,0)" xlink:href="#af"/><use transform="matrix(0.0087890625,0,0,0.0087890625,26.173828125,0)" xlink:href="#aA"/><use transform="matrix(0.0087890625,0,0,0.0087890625,30.533203125,0)" xlink:href="#af"/><use transform="matrix(0.0087890625,0,0,0.0087890625,36.421875,0)" xlink:href="#aE"/><use transform="matrix(0.0087890625,0,0,0.0087890625,47.0654296875,0)" xlink:href="#am"/><use transform="matrix(0.0087890625,0,0,0.0087890625,58.0869140625,0)" xlink:href="#ae"/></g><path fill="#3a414a" d="M603 20c-253 0-434-161-469-399h188c31 132 124 231 281 231 227 0 367-207 367-568h-12c-80 122-211 199-367 199-257 0-469-206-469-493 0-278 200-505 506-500 245 4 520 158 520 706 0 527-208 824-545 824zm16-703c181 0 324-157 324-332 0-171-135-328-318-328-180 0-317 148-317 332 0 183 131 328 311 328" id="aV"/><path fill="#3a414a" d="M128 359l88-567h206L266 359H128" id="aW"/><g id="I"><use transform="matrix(0.0087890625,0,0,0.0087890625,0,0)" xlink:href="#aT"/><use transform="matrix(0.0087890625,0,0,0.0087890625,12.990234375,0)" xlink:href="#aK"/><use transform="matrix(0.0087890625,0,0,0.0087890625,23.8095703125,0)" xlink:href="#ao"/><use transform="matrix(0.0087890625,0,0,0.0087890625,36.9580078125,0)" xlink:href="#al"/><use transform="matrix(0.0087890625,0,0,0.0087890625,41.7919921875,0)" xlink:href="#aH"/><use transform="matrix(0.0087890625,0,0,0.0087890625,58.0517578125,0)" xlink:href="#aa"/><use transform="matrix(0.0087890625,0,0,0.0087890625,70.470703125,0)" xlink:href="#aR"/><use transform="matrix(0.0087890625,0,0,0.0087890625,80.6484375,0)" xlink:href="#aq"/><use transform="matrix(0.0087890625,0,0,0.0087890625,87.2138671875,0)" xlink:href="#aV"/><use transform="matrix(0.0087890625,0,0,0.0087890625,97.9189453125,0)" xlink:href="#aW"/><use transform="matrix(0.0087890625,0,0,0.0087890625,102.6474609375,0)" xlink:href="#ay"/><use transform="matrix(0.0087890625,0,0,0.0087890625,113.8095703125,0)" xlink:href="#au"/></g><path fill="#3a414a" d="M611 442c-248 0-391-105-460-228l146-94c47 65 117 165 314 165 178 0 307-82 307-266v-224h-17C863-141 792-18 576-18c-268 0-472-195-472-546 0-346 197-568 476-568 216 0 288 133 326 193h17v-179h175V29c0 289-215 413-487 413zm-5-620c203 0 314-146 314-390 0-237-108-403-314-403-213 0-319 180-319 403 0 230 109 390 319 390" id="aX"/><g id="J"><use transform="matrix(0.0087890625,0,0,0.0087890625,0,0)" xlink:href="#aR"/><use transform="matrix(0.0087890625,0,0,0.0087890625,10.177734375,0)" xlink:href="#ah"/><use transform="matrix(0.0087890625,0,0,0.0087890625,20.970703125,0)" xlink:href="#aC"/><use transform="matrix(0.0087890625,0,0,0.0087890625,31.60546875,0)" xlink:href="#aX"/><use transform="matrix(0.0087890625,0,0,0.0087890625,42.64453125,0)" xlink:href="#aA"/><use transform="matrix(0.0087890625,0,0,0.0087890625,47.00390625,0)" xlink:href="#af"/><use transform="matrix(0.0087890625,0,0,0.0087890625,52.892578125,0)" xlink:href="#aE"/><use transform="matrix(0.0087890625,0,0,0.0087890625,63.5361328125,0)" xlink:href="#am"/><use transform="matrix(0.0087890625,0,0,0.0087890625,74.5576171875,0)" xlink:href="#ae"/></g><g id="K"><use transform="matrix(0.0087890625,0,0,0.0087890625,0,0)" xlink:href="#al"/><use transform="matrix(0.0087890625,0,0,0.0087890625,4.833984375,0)" xlink:href="#aw"/><use transform="matrix(0.0087890625,0,0,0.0087890625,20.6015625,0)" xlink:href="#av"/><use transform="matrix(0.0087890625,0,0,0.0087890625,30.708984375,0)" xlink:href="#aX"/><use transform="matrix(0.0087890625,0,0,0.0087890625,41.748046875,0)" xlink:href="#ae"/><use transform="matrix(0.0087890625,0,0,0.0087890625,52.2421875,0)" xlink:href="#aJ"/><use transform="matrix(0.0087890625,0,0,0.0087890625,65.63671875,0)" xlink:href="#az"/><use transform="matrix(0.0087890625,0,0,0.0087890625,72.6943359375,0)" xlink:href="#ai"/></g><g id="L"><use transform="matrix(0.0087890625,0,0,0.0087890625,0,0)" xlink:href="#aJ"/><use transform="matrix(0.0087890625,0,0,0.0087890625,13.39453125,0)" xlink:href="#ab"/><use transform="matrix(0.0087890625,0,0,0.0087890625,22.8955078125,0)" xlink:href="#ae"/><use transform="matrix(0.0087890625,0,0,0.0087890625,33.3896484375,0)" xlink:href="#az"/><use transform="matrix(0.0087890625,0,0,0.0087890625,40.447265625,0)" xlink:href="#aj"/><use transform="matrix(0.0087890625,0,0,0.0087890625,51.8466796875,0)" xlink:href="#ah"/><use transform="matrix(0.0087890625,0,0,0.0087890625,62.6396484375,0)" xlink:href="#aA"/><use transform="matrix(0.0087890625,0,0,0.0087890625,66.9990234375,0)" xlink:href="#aC"/><use transform="matrix(0.0087890625,0,0,0.0087890625,77.6337890625,0)" xlink:href="#af"/><use transform="matrix(0.0087890625,0,0,0.0087890625,83.3466796875,0)" xlink:href="#ab"/></g><g id="M"><use transform="matrix(0.0087890625,0,0,0.0087890625,0,0)" xlink:href="#aP"/><use transform="matrix(0.0087890625,0,0,0.0087890625,10.6259765625,0)" xlink:href="#ak"/></g><g id="N"><use transform="matrix(0.0087890625,0,0,0.0087890625,0,0)" xlink:href="#ao"/><use transform="matrix(0.0087890625,0,0,0.0087890625,13.1484375,0)" xlink:href="#aE"/><use transform="matrix(0.0087890625,0,0,0.0087890625,23.7919921875,0)" xlink:href="#az"/><use transform="matrix(0.0087890625,0,0,0.0087890625,30.849609375,0)" xlink:href="#az"/><use transform="matrix(0.0087890625,0,0,0.0087890625,37.3271484375,0)" xlink:href="#ae"/><use transform="matrix(0.0087890625,0,0,0.0087890625,47.8212890625,0)" xlink:href="#aC"/><use transform="matrix(0.0087890625,0,0,0.0087890625,58.4560546875,0)" xlink:href="#af"/><use transform="matrix(0.0087890625,0,0,0.0087890625,64.3447265625,0)" xlink:href="#aj"/><use transform="matrix(0.0087890625,0,0,0.0087890625,75.744140625,0)" xlink:href="#ah"/><use transform="matrix(0.0087890625,0,0,0.0087890625,86.537109375,0)" xlink:href="#aA"/><use transform="matrix(0.0087890625,0,0,0.0087890625,90.896484375,0)" xlink:href="#aC"/><use transform="matrix(0.0087890625,0,0,0.0087890625,101.53125,0)" xlink:href="#af"/><use transform="matrix(0.0087890625,0,0,0.0087890625,107.244140625,0)" xlink:href="#ab"/></g><path fill="#3a414a" d="M678-1118v154H420V0H240v-964H20v-154h220v-149c0-194 155-293 318-293 85 0 141 18 168 30l-50 154c-19-6-47-17-97-17-111 0-159 58-159 166v109h258" id="aY"/><g id="O"><use transform="matrix(0.0087890625,0,0,0.0087890625,0,0)" xlink:href="#aR"/><use transform="matrix(0.0087890625,0,0,0.0087890625,10.177734375,0)" xlink:href="#aA"/><use transform="matrix(0.0087890625,0,0,0.0087890625,14.537109375,0)" xlink:href="#aY"/><use transform="matrix(0.0087890625,0,0,0.0087890625,20.671875,0)" xlink:href="#ae"/><use transform="matrix(0.0087890625,0,0,0.0087890625,31.166015625,0)" xlink:href="#af"/><use transform="matrix(0.0087890625,0,0,0.0087890625,37.0546875,0)" xlink:href="#aA"/><use transform="matrix(0.0087890625,0,0,0.0087890625,41.4140625,0)" xlink:href="#aw"/><use transform="matrix(0.0087890625,0,0,0.0087890625,57.181640625,0)" xlink:href="#ae"/><use transform="matrix(0.0087890625,0,0,0.0087890625,67.67578125,0)" xlink:href="#aj"/><use transform="matrix(0.0087890625,0,0,0.0087890625,79.0751953125,0)" xlink:href="#ah"/><use transform="matrix(0.0087890625,0,0,0.0087890625,89.8681640625,0)" xlink:href="#aA"/><use transform="matrix(0.0087890625,0,0,0.0087890625,94.2275390625,0)" xlink:href="#aC"/><use transform="matrix(0.0087890625,0,0,0.0087890625,104.8623046875,0)" xlink:href="#af"/><use transform="matrix(0.0087890625,0,0,0.0087890625,110.5751953125,0)" xlink:href="#ab"/></g><g id="P"><use transform="matrix(0.0087890625,0,0,0.0087890625,0,0)" xlink:href="#aR"/><use transform="matrix(0.0087890625,0,0,0.0087890625,10.177734375,0)" xlink:href="#av"/><use transform="matrix(0.0087890625,0,0,0.0087890625,20.28515625,0)" xlink:href="#ab"/><use transform="matrix(0.0087890625,0,0,0.0087890625,29.7861328125,0)" xlink:href="#af"/><use transform="matrix(0.0087890625,0,0,0.0087890625,35.6748046875,0)" xlink:href="#aJ"/><use transform="matrix(0.0087890625,0,0,0.0087890625,49.0693359375,0)" xlink:href="#ac"/><use transform="matrix(0.0087890625,0,0,0.0087890625,60.0908203125,0)" xlink:href="#am"/><use transform="matrix(0.0087890625,0,0,0.0087890625,71.1123046875,0)" xlink:href="#av"/><use transform="matrix(0.0087890625,0,0,0.0087890625,81.2197265625,0)" xlink:href="#af"/><use transform="matrix(0.0087890625,0,0,0.0087890625,86.9326171875,0)" xlink:href="#ae"/><use transform="matrix(0.0087890625,0,0,0.0087890625,97.4267578125,0)" xlink:href="#am"/></g><g id="Q"><use transform="matrix(0.0087890625,0,0,0.0087890625,0,0)" xlink:href="#aR"/><use transform="matrix(0.0087890625,0,0,0.0087890625,10.177734375,0)" xlink:href="#ae"/><use transform="matrix(0.0087890625,0,0,0.0087890625,20.84765625,0)" xlink:href="#av"/><use transform="matrix(0.0087890625,0,0,0.0087890625,30.955078125,0)" xlink:href="#am"/><use transform="matrix(0.0087890625,0,0,0.0087890625,41.9765625,0)" xlink:href="#ae"/><use transform="matrix(0.0087890625,0,0,0.0087890625,52.470703125,0)" xlink:href="#az"/><use transform="matrix(0.0087890625,0,0,0.0087890625,59.5283203125,0)" xlink:href="#aN"/><use transform="matrix(0.0087890625,0,0,0.0087890625,70.5498046875,0)" xlink:href="#ah"/><use transform="matrix(0.0087890625,0,0,0.0087890625,81.5185546875,0)" xlink:href="#av"/><use transform="matrix(0.0087890625,0,0,0.0087890625,91.6259765625,0)" xlink:href="#az"/><use transform="matrix(0.0087890625,0,0,0.0087890625,98.103515625,0)" xlink:href="#am"/><use transform="matrix(0.0087890625,0,0,0.0087890625,109.125,0)" xlink:href="#ab"/></g><g id="R"><use transform="matrix(0.0087890625,0,0,0.0087890625,0,0)" xlink:href="#aj"/><use transform="matrix(0.0087890625,0,0,0.0087890625,11.49609375,0)" xlink:href="#ak"/></g><g id="S"><use transform="matrix(0.0087890625,0,0,0.0087890625,0,0)" xlink:href="#al"/><use transform="matrix(0.0087890625,0,0,0.0087890625,4.833984375,0)" xlink:href="#am"/></g><g id="T"><use transform="matrix(0.0087890625,0,0,0.0087890625,0,0)" xlink:href="#al"/><use transform="matrix(0.0087890625,0,0,0.0087890625,4.833984375,0)" xlink:href="#ad"/><use transform="matrix(0.0087890625,0,0,0.0087890625,18.3955078125,0)" xlink:href="#aO"/></g><g id="U"><use transform="matrix(0.0087890625,0,0,0.0087890625,0,0)" xlink:href="#aP"/><use transform="matrix(0.0087890625,0,0,0.0087890625,10.6259765625,0)" xlink:href="#ak"/></g><g id="V"><use transform="matrix(0.0087890625,0,0,0.0087890625,0,0)" xlink:href="#aJ"/><use transform="matrix(0.0087890625,0,0,0.0087890625,13.39453125,0)" xlink:href="#ab"/><use transform="matrix(0.0087890625,0,0,0.0087890625,22.8955078125,0)" xlink:href="#ae"/><use transform="matrix(0.0087890625,0,0,0.0087890625,33.3896484375,0)" xlink:href="#az"/><use transform="matrix(0.0087890625,0,0,0.0087890625,40.447265625,0)" xlink:href="#al"/><use transform="matrix(0.0087890625,0,0,0.0087890625,45.28125,0)" xlink:href="#am"/></g><g id="W"><use transform="matrix(0.0087890625,0,0,0.0087890625,0,0)" xlink:href="#ad"/><use transform="matrix(0.0087890625,0,0,0.0087890625,13.5615234375,0)" xlink:href="#an"/><use transform="matrix(0.0087890625,0,0,0.0087890625,24.75,0)" xlink:href="#aa"/><use transform="matrix(0.0087890625,0,0,0.0087890625,37.1689453125,0)" xlink:href="#ag"/><use transform="matrix(0.0087890625,0,0,0.0087890625,48.7529296875,0)" xlink:href="#ao"/><use transform="matrix(0.0087890625,0,0,0.0087890625,61.9013671875,0)" xlink:href="#ap"/><use transform="matrix(0.0087890625,0,0,0.0087890625,75.2783203125,0)" xlink:href="#aa"/><use transform="matrix(0.0087890625,0,0,0.0087890625,87.697265625,0)" xlink:href="#ag"/><use transform="matrix(0.0087890625,0,0,0.0087890625,99.28125,0)" xlink:href="#aq"/><use transform="matrix(0.0087890625,0,0,0.0087890625,105.8466796875,0)" xlink:href="#ar"/><use transform="matrix(0.0087890625,0,0,0.0087890625,117.474609375,0)" xlink:href="#as"/><use transform="matrix(0.0087890625,0,0,0.0087890625,128.4169921875,0)" xlink:href="#at"/><use transform="matrix(0.0087890625,0,0,0.0087890625,139.7724609375,0)" xlink:href="#au"/></g><g id="X"><use transform="matrix(0.0087890625,0,0,0.0087890625,0,0)" xlink:href="#aO"/><use transform="matrix(0.0087890625,0,0,0.0087890625,10.212890625,0)" xlink:href="#ah"/><use transform="matrix(0.0087890625,0,0,0.0087890625,21.005859375,0)" xlink:href="#af"/><use transform="matrix(0.0087890625,0,0,0.0087890625,26.982421875,0)" xlink:href="#av"/><use transform="matrix(0.0087890625,0,0,0.0087890625,37.08984375,0)" xlink:href="#ai"/><use transform="matrix(0.0087890625,0,0,0.0087890625,41.44921875,0)" xlink:href="#aj"/><use transform="matrix(0.0087890625,0,0,0.0087890625,52.8486328125,0)" xlink:href="#ah"/><use transform="matrix(0.0087890625,0,0,0.0087890625,63.6416015625,0)" xlink:href="#aA"/><use transform="matrix(0.0087890625,0,0,0.0087890625,68.0009765625,0)" xlink:href="#aC"/><use transform="matrix(0.0087890625,0,0,0.0087890625,78.6357421875,0)" xlink:href="#af"/><use transform="matrix(0.0087890625,0,0,0.0087890625,84.3486328125,0)" xlink:href="#ab"/></g><g id="Y"><use transform="matrix(0.0087890625,0,0,0.0087890625,0,0)" xlink:href="#aR"/><use transform="matrix(0.0087890625,0,0,0.0087890625,10.177734375,0)" xlink:href="#av"/><use transform="matrix(0.0087890625,0,0,0.0087890625,20.28515625,0)" xlink:href="#ab"/><use transform="matrix(0.0087890625,0,0,0.0087890625,29.7861328125,0)" xlink:href="#af"/><use transform="matrix(0.0087890625,0,0,0.0087890625,35.6748046875,0)" xlink:href="#aJ"/><use transform="matrix(0.0087890625,0,0,0.0087890625,49.0693359375,0)" xlink:href="#ac"/><use transform="matrix(0.0087890625,0,0,0.0087890625,60.0908203125,0)" xlink:href="#am"/><use transform="matrix(0.0087890625,0,0,0.0087890625,71.1123046875,0)" xlink:href="#av"/><use transform="matrix(0.0087890625,0,0,0.0087890625,81.2197265625,0)" xlink:href="#af"/><use transform="matrix(0.0087890625,0,0,0.0087890625,86.9326171875,0)" xlink:href="#ae"/><use transform="matrix(0.0087890625,0,0,0.0087890625,97.4267578125,0)" xlink:href="#am"/></g><g id="Z"><use transform="matrix(0.0087890625,0,0,0.0087890625,0,0)" xlink:href="#aT"/><use transform="matrix(0.0087890625,0,0,0.0087890625,12.375,0)" xlink:href="#aa"/><use transform="matrix(0.0087890625,0,0,0.0087890625,23.2646484375,0)" xlink:href="#aO"/><use transform="matrix(0.0087890625,0,0,0.0087890625,34.8837890625,0)" xlink:href="#aK"/><use transform="matrix(0.0087890625,0,0,0.0087890625,45.703125,0)" xlink:href="#aO"/><use transform="matrix(0.0087890625,0,0,0.0087890625,57.322265625,0)" xlink:href="#al"/><use transform="matrix(0.0087890625,0,0,0.0087890625,62.15625,0)" xlink:href="#aH"/><use transform="matrix(0.0087890625,0,0,0.0087890625,78.416015625,0)" xlink:href="#aK"/><use transform="matrix(0.0087890625,0,0,0.0087890625,89.2353515625,0)" xlink:href="#ax"/></g></defs></g></svg>