<svg xmlns="http://www.w3.org/2000/svg" viewBox="0 0 1200 600" preserveAspectRatio="none">
  <rect width="1200" height="600" fill="#121a24"/>
  <g stroke="#63b3ff" stroke-opacity="0.18" stroke-width="2">
    <path d="M0 120H1200M0 220H1200M0 320H1200M0 420H1200M0 520H1200"/>
    <path d="M150 0V600M300 0V600M450 0V600M600 0V600M750 0V600M900 0V600M1050 0V600"/>
  </g>
  <circle cx="890" cy="170" r="150" fill="#1b7fd4" opacity="0.18"/>
  <path d="M0 470 C180 360 360 520 550 430 S900 280 1200 390 L1200 600 L0 600 Z" fill="#0b1118" opacity="0.76"/>
  <path d="M130 450 Q420 260 720 370 T1100 300" fill="none" stroke="#ffd600" stroke-opacity="0.35" stroke-width="14" stroke-linecap="round"/>
</svg>
