<svg xmlns="http://www.w3.org/2000/svg" viewBox="0 0 1200 600" preserveAspectRatio="none">
  <rect width="1200" height="600" fill="#10263f"/>
  <g stroke="#8ec5ff" stroke-opacity="0.22" fill="none">
    <path d="M0 90H1200M0 180H1200M0 270H1200M0 360H1200M0 450H1200M0 540H1200"/>
    <path d="M120 0V600M240 0V600M360 0V600M480 0V600M600 0V600M720 0V600M840 0V600M960 0V600M1080 0V600"/>
  </g>
  <g stroke="#d6efff" stroke-width="4" stroke-opacity="0.36" fill="none">
    <rect x="120" y="120" width="410" height="210" rx="14"/>
    <rect x="610" y="180" width="270" height="110" rx="12"/>
    <path d="M640 390H1030"/>
    <circle cx="950" cy="180" r="70"/>
  </g>
  <path d="M0 520 L200 450 L370 490 L520 420 L700 470 L890 390 L1200 470 L1200 600 L0 600 Z" fill="#0c1724" opacity="0.72"/>
</svg>
